<mxfile host="app.diagrams.net" modified="2022-12-10T04:12:07.790Z" agent="5.0 (Windows NT 10.0; Win64; x64) AppleWebKit/537.36 (KHTML, like Gecko) Chrome/108.0.0.0 Safari/537.36" etag="6tfiUV0_ZbLG1P6G2CEm" version="20.6.0" type="github">
  <diagram id="C5RBs43oDa-KdzZeNtuy" name="Page-1">
    <mxGraphModel dx="755" dy="400" grid="1" gridSize="10" guides="1" tooltips="1" connect="1" arrows="1" fold="1" page="1" pageScale="1" pageWidth="827" pageHeight="1169" math="0" shadow="0">
      <root>
        <mxCell id="WIyWlLk6GJQsqaUBKTNV-0" />
        <mxCell id="WIyWlLk6GJQsqaUBKTNV-1" parent="WIyWlLk6GJQsqaUBKTNV-0" />
        <mxCell id="B3QiQTXbQmTzXa6q-jlU-16" style="edgeStyle=orthogonalEdgeStyle;rounded=0;orthogonalLoop=1;jettySize=auto;html=1;entryX=0;entryY=0.5;entryDx=0;entryDy=0;" edge="1" parent="WIyWlLk6GJQsqaUBKTNV-1" source="B3QiQTXbQmTzXa6q-jlU-0" target="B3QiQTXbQmTzXa6q-jlU-1">
          <mxGeometry relative="1" as="geometry" />
        </mxCell>
        <mxCell id="B3QiQTXbQmTzXa6q-jlU-0" value="search name of any movie, tv show, animate" style="rounded=1;whiteSpace=wrap;html=1;" vertex="1" parent="WIyWlLk6GJQsqaUBKTNV-1">
          <mxGeometry x="40" y="20" width="120" height="60" as="geometry" />
        </mxCell>
        <mxCell id="B3QiQTXbQmTzXa6q-jlU-8" value="" style="edgeStyle=orthogonalEdgeStyle;rounded=0;orthogonalLoop=1;jettySize=auto;html=1;startArrow=none;" edge="1" parent="WIyWlLk6GJQsqaUBKTNV-1" source="B3QiQTXbQmTzXa6q-jlU-9" target="B3QiQTXbQmTzXa6q-jlU-7">
          <mxGeometry relative="1" as="geometry" />
        </mxCell>
        <mxCell id="B3QiQTXbQmTzXa6q-jlU-11" value="" style="edgeStyle=orthogonalEdgeStyle;rounded=0;orthogonalLoop=1;jettySize=auto;html=1;" edge="1" parent="WIyWlLk6GJQsqaUBKTNV-1" source="B3QiQTXbQmTzXa6q-jlU-1" target="B3QiQTXbQmTzXa6q-jlU-9">
          <mxGeometry relative="1" as="geometry" />
        </mxCell>
        <mxCell id="B3QiQTXbQmTzXa6q-jlU-14" style="edgeStyle=orthogonalEdgeStyle;rounded=0;orthogonalLoop=1;jettySize=auto;html=1;" edge="1" parent="WIyWlLk6GJQsqaUBKTNV-1" source="B3QiQTXbQmTzXa6q-jlU-1" target="B3QiQTXbQmTzXa6q-jlU-12">
          <mxGeometry relative="1" as="geometry">
            <Array as="points">
              <mxPoint x="280" y="60" />
              <mxPoint x="280" y="105" />
            </Array>
          </mxGeometry>
        </mxCell>
        <mxCell id="B3QiQTXbQmTzXa6q-jlU-1" value="Check is correct which the title ?" style="rhombus;whiteSpace=wrap;html=1;rounded=1;" vertex="1" parent="WIyWlLk6GJQsqaUBKTNV-1">
          <mxGeometry x="220" y="20" width="80" height="80" as="geometry" />
        </mxCell>
        <mxCell id="B3QiQTXbQmTzXa6q-jlU-7" value="Show all related name of input&lt;br&gt;in the main Page" style="whiteSpace=wrap;html=1;rounded=1;" vertex="1" parent="WIyWlLk6GJQsqaUBKTNV-1">
          <mxGeometry x="414" y="25" width="120" height="60" as="geometry" />
        </mxCell>
        <mxCell id="B3QiQTXbQmTzXa6q-jlU-9" value="Correct" style="text;html=1;strokeColor=none;fillColor=none;align=center;verticalAlign=middle;whiteSpace=wrap;rounded=0;" vertex="1" parent="WIyWlLk6GJQsqaUBKTNV-1">
          <mxGeometry x="320" y="35" width="60" height="30" as="geometry" />
        </mxCell>
        <mxCell id="B3QiQTXbQmTzXa6q-jlU-10" value="" style="edgeStyle=orthogonalEdgeStyle;rounded=0;orthogonalLoop=1;jettySize=auto;html=1;endArrow=none;" edge="1" parent="WIyWlLk6GJQsqaUBKTNV-1" source="B3QiQTXbQmTzXa6q-jlU-1" target="B3QiQTXbQmTzXa6q-jlU-9">
          <mxGeometry relative="1" as="geometry">
            <mxPoint x="270" y="60.00000000000006" as="sourcePoint" />
            <mxPoint x="360" y="40.00000000000006" as="targetPoint" />
          </mxGeometry>
        </mxCell>
        <mxCell id="B3QiQTXbQmTzXa6q-jlU-15" style="edgeStyle=orthogonalEdgeStyle;rounded=0;orthogonalLoop=1;jettySize=auto;html=1;entryX=0;entryY=0.5;entryDx=0;entryDy=0;" edge="1" parent="WIyWlLk6GJQsqaUBKTNV-1" source="B3QiQTXbQmTzXa6q-jlU-12" target="B3QiQTXbQmTzXa6q-jlU-13">
          <mxGeometry relative="1" as="geometry" />
        </mxCell>
        <mxCell id="B3QiQTXbQmTzXa6q-jlU-12" value="Wrong" style="text;html=1;strokeColor=none;fillColor=none;align=center;verticalAlign=middle;whiteSpace=wrap;rounded=0;" vertex="1" parent="WIyWlLk6GJQsqaUBKTNV-1">
          <mxGeometry x="320" y="90" width="60" height="30" as="geometry" />
        </mxCell>
        <mxCell id="B3QiQTXbQmTzXa6q-jlU-13" value="Show a alert that there nothing related" style="whiteSpace=wrap;html=1;rounded=1;" vertex="1" parent="WIyWlLk6GJQsqaUBKTNV-1">
          <mxGeometry x="414" y="100" width="120" height="60" as="geometry" />
        </mxCell>
      </root>
    </mxGraphModel>
  </diagram>
</mxfile>
